<?xml version="1.0" encoding="UTF-8"?>
<svg version="1.1" xmlns="http://www.w3.org/2000/svg" width="128" height="128">
<path d="M0 0 C13.25521968 10.02374531 22.74519172 24.58924411 25.203125 41.15234375 C26.72221997 60.75511348 23.4815856 77.55862481 11.453125 93.46484375 C0.84072358 105.84259684 -13.86086363 115.07238796 -30.39599609 116.35375977 C-50.19422491 117.08087393 -67.07435391 113.57827167 -82.4921875 100.359375 C-94.3628065 88.99174833 -102.4861644 74.49766291 -103.09765625 57.84765625 C-103.30823185 37.91552592 -98.97855919 20.96153609 -84.796875 6.15234375 C-61.32875283 -16.74891557 -26.74855413 -17.67048339 0 0 Z M-80.44677734 15.54589844 C-90.66109852 27.69964769 -94.72946181 42.52287957 -93.796875 58.15234375 C-91.75306937 72.85735204 -85.19617246 85.57208311 -73.796875 95.15234375 C-60.53700034 104.78735182 -45.79001418 108.95822175 -29.48046875 106.69140625 C-15.57531756 103.84679048 -2.99424044 97.05748994 5.45556641 85.42871094 C14.7526656 71.29154886 18.51150545 56.37301527 15.078125 39.58984375 C11.3614822 25.40522535 3.49304907 13.32087883 -9.10961914 5.62426758 C-33.04816752 -8.03969975 -61.27917674 -5.06570097 -80.44677734 15.54589844 Z " fill="#000000" transform="translate(102.796875,11.84765625)"/>
<path d="M0 0 C1.01733467 -0.00744736 1.01733467 -0.00744736 2.05522156 -0.01504517 C4.302531 -0.02967022 6.54976989 -0.0364688 8.79711914 -0.04199219 C10.35649112 -0.04774271 11.91586306 -0.05350046 13.47523499 -0.05926514 C16.74618866 -0.06977565 20.01711775 -0.07561819 23.28808594 -0.07910156 C27.48266767 -0.08459092 31.67692555 -0.10862787 35.8714056 -0.13707352 C39.09270687 -0.15568069 42.31392976 -0.16090443 45.53528023 -0.16243744 C47.08187191 -0.16546812 48.62846208 -0.17351064 50.17500114 -0.18662262 C52.33697171 -0.20364605 54.49814617 -0.20181267 56.66015625 -0.1953125 C57.89100449 -0.19895813 59.12185272 -0.20260376 60.38999939 -0.20635986 C63.39477539 0.16113281 63.39477539 0.16113281 65.32740784 1.48809814 C66.39477539 3.16113281 66.39477539 3.16113281 66.20727539 6.28613281 C65.93915039 7.23488281 65.67102539 8.18363281 65.39477539 9.16113281 C62.51198347 10.60252877 60.01090297 10.30438395 56.78955078 10.32226562 C55.77221611 10.32971298 55.77221611 10.32971298 54.73432922 10.33731079 C52.48701978 10.35193585 50.23978089 10.35873442 47.99243164 10.36425781 C46.43305967 10.37000834 44.87368772 10.37576608 43.3143158 10.38153076 C40.04336212 10.39204128 36.77243303 10.39788382 33.50146484 10.40136719 C29.30688311 10.40685655 25.11262523 10.4308935 20.91814518 10.45933914 C17.69684392 10.47794631 14.47562103 10.48317005 11.25427055 10.48470306 C9.70767887 10.48773375 8.1610887 10.49577627 6.61454964 10.50888824 C4.45257907 10.52591168 2.29140461 10.52407829 0.12939453 10.51757812 C-1.1014537 10.52122375 -2.33230194 10.52486938 -3.60044861 10.52862549 C-6.60522461 10.16113281 -6.60522461 10.16113281 -8.53785706 8.83416748 C-9.60522461 7.16113281 -9.60522461 7.16113281 -9.41772461 4.03613281 C-9.14959961 3.08738281 -8.88147461 2.13863281 -8.60522461 1.16113281 C-5.72243268 -0.28026315 -3.22135219 0.01788168 0 0 Z " fill="#000000" transform="translate(35.605224609375,58.8388671875)"/>
</svg>
