<?xml version="1.0" encoding="UTF-8"?>
<svg version="1.1" xmlns="http://www.w3.org/2000/svg" width="128" height="128">
<path d="M0 0 C0.89162842 0.37125 0.89162842 0.37125 1.80126953 0.75 C19.98742322 8.48459847 30.65878444 20.14562913 38.95703125 38.1015625 C43.77060527 51.47861091 44.66432909 69.81512587 39 83 C38.62875 83.89162842 38.62875 83.89162842 38.25 84.80126953 C30.51540153 102.98742322 18.85437087 113.65878444 0.8984375 121.95703125 C-12.47861091 126.77060527 -30.81512587 127.66432909 -44 122 C-44.59441895 121.7525 -45.18883789 121.505 -45.80126953 121.25 C-63.98742322 113.51540153 -74.65878444 101.85437087 -82.95703125 83.8984375 C-87.77060527 70.52138909 -88.66432909 52.18487413 -83 39 C-82.7525 38.40558105 -82.505 37.81116211 -82.25 37.19873047 C-74.51540153 19.01257678 -62.85437087 8.34121556 -44.8984375 0.04296875 C-31.52138909 -4.77060527 -13.18487413 -5.66432909 0 0 Z M-60.12109375 23.12890625 C-70.80953518 33.77290509 -75.81646874 48.07890868 -76 63 C-74.91837392 78.48327708 -67.68909932 92.39865819 -56.12109375 102.66796875 C-44.63109375 111.6974839 -31.46722052 115.89410259 -16.84375 114.75390625 C-1.76816266 112.55862098 11.69996524 105.22283821 21.1875 93.1875 C29.74267362 81.15897251 33.42177 67.65107301 31.375 52.9375 C28.48761463 38.20793275 20.43729407 25.10256671 8.171875 16.37890625 C-14.44529443 2.01944436 -40.57379294 5.34124505 -60.12109375 23.12890625 Z " fill="#000000" transform="translate(86,3)"/>
<path d="M0 0 C1.25248502 2.50497004 1.11374406 4.20853274 1.09765625 7.0078125 C1.09443359 7.99394531 1.09121094 8.98007812 1.08789062 9.99609375 C1.07532227 11.54490234 1.07532227 11.54490234 1.0625 13.125 C1.05798828 14.16527344 1.05347656 15.20554687 1.04882812 16.27734375 C1.03701952 18.85161962 1.02055075 21.42578146 1 24 C1.65073486 23.98428955 2.30146973 23.9685791 2.97192383 23.95239258 C5.91869424 23.89005351 8.86532598 23.85101316 11.8125 23.8125 C12.83666016 23.78736328 13.86082031 23.76222656 14.91601562 23.73632812 C16.39038086 23.72182617 16.39038086 23.72182617 17.89453125 23.70703125 C18.80050049 23.6913208 19.70646973 23.67561035 20.63989258 23.65942383 C23 24 23 24 24.83081055 25.29174805 C26 27 26 27 25.8125 30.625 C25.544375 31.73875 25.27625 32.8525 25 34 C22.49502996 35.25248502 20.79146726 35.11374406 17.9921875 35.09765625 C17.00605469 35.09443359 16.01992187 35.09121094 15.00390625 35.08789062 C13.97136719 35.07951172 12.93882813 35.07113281 11.875 35.0625 C10.31458984 35.05573242 10.31458984 35.05573242 8.72265625 35.04882812 C6.14838038 35.03701952 3.57421854 35.02055075 1 35 C1.01571045 35.68626465 1.0314209 36.3725293 1.04760742 37.07958984 C1.10982719 40.17797663 1.14894898 43.27623224 1.1875 46.375 C1.21263672 47.45523438 1.23777344 48.53546875 1.26367188 49.6484375 C1.27333984 50.6796875 1.28300781 51.7109375 1.29296875 52.7734375 C1.3086792 53.72653809 1.32438965 54.67963867 1.34057617 55.66162109 C1.22818604 56.43328613 1.1157959 57.20495117 1 58 C-2 60 -2 60 -5.125 59.6875 C-8 59 -8 59 -9 58 C-9.08713831 56.29227642 -9.10700007 54.58101351 -9.09765625 52.87109375 C-9.09443359 51.83662109 -9.09121094 50.80214844 -9.08789062 49.73632812 C-9.07951172 48.64771484 -9.07113281 47.55910156 -9.0625 46.4375 C-9.05798828 45.34501953 -9.05347656 44.25253906 -9.04882812 43.12695312 C-9.03699826 40.41791505 -9.02051543 37.70898401 -9 35 C-9.65073486 35.01571045 -10.30146973 35.0314209 -10.97192383 35.04760742 C-13.91869424 35.10994649 -16.86532598 35.14898684 -19.8125 35.1875 C-20.83666016 35.21263672 -21.86082031 35.23777344 -22.91601562 35.26367188 C-24.39038086 35.27817383 -24.39038086 35.27817383 -25.89453125 35.29296875 C-26.80050049 35.3086792 -27.70646973 35.32438965 -28.63989258 35.34057617 C-31 35 -31 35 -32.83081055 33.70825195 C-34 32 -34 32 -33.8125 28.375 C-33.544375 27.26125 -33.27625 26.1475 -33 25 C-30.49502996 23.74751498 -28.79146726 23.88625594 -25.9921875 23.90234375 C-25.00605469 23.90556641 -24.01992188 23.90878906 -23.00390625 23.91210938 C-21.97136719 23.92048828 -20.93882813 23.92886719 -19.875 23.9375 C-18.31458984 23.94426758 -18.31458984 23.94426758 -16.72265625 23.95117188 C-14.14838038 23.96298048 -11.57421854 23.97944925 -9 24 C-9.00785522 23.01604248 -9.00785522 23.01604248 -9.01586914 22.01220703 C-9.03661272 19.04981437 -9.04965176 16.08743697 -9.0625 13.125 C-9.07087891 12.09246094 -9.07925781 11.05992188 -9.08789062 9.99609375 C-9.09272461 8.51689453 -9.09272461 8.51689453 -9.09765625 7.0078125 C-9.10551147 5.64100342 -9.10551147 5.64100342 -9.11352539 4.24658203 C-9 2 -9 2 -8 0 C-4.69693408 -1.10102197 -3.28414305 -0.95067299 0 0 Z " fill="#000000" transform="translate(68,34)"/>
</svg>
